<svg width="100" height="100" viewBox="0 0 100 100" fill="none" xmlns="http://www.w3.org/2000/svg">
<rect x="29" y="10.9999" width="51.75" height="66.75" rx="2.84" stroke="#111010" stroke-width="2"/>
<path d="M24.875 21.2499H21.84C19.7192 21.2499 18 22.9691 18 25.0899V86.1599C18 88.2807 19.7192 89.9999 21.84 89.9999H67.91C70.0308 89.9999 71.75 88.2807 71.75 86.1599V83.1249" stroke="#111010" stroke-width="2" stroke-linecap="round"/>
<line x1="37.75" y1="53.9999" x2="70.75" y2="53.9999" stroke="#111010" stroke-width="2" stroke-linecap="round"/>
<line x1="37.75" y1="46.9999" x2="70.75" y2="46.9999" stroke="#111010" stroke-width="2" stroke-linecap="round"/>
<line x1="37.75" y1="32.9999" x2="70.75" y2="32.9999" stroke="#111010" stroke-width="2" stroke-linecap="round"/>
<line x1="37.75" y1="67.9999" x2="70.75" y2="67.9999" stroke="#111010" stroke-width="2" stroke-linecap="round"/>
<line x1="37.75" y1="60.9999" x2="55.75" y2="60.9999" stroke="#111010" stroke-width="2" stroke-linecap="round"/>
<line x1="37.75" y1="39.9999" x2="63.25" y2="39.9999" stroke="#111010" stroke-width="2" stroke-linecap="round"/>
<path d="M29.25 15.0899C29.25 12.9691 30.9692 11.2499 33.09 11.2499H77.91C80.0308 11.2499 81.75 12.9691 81.75 15.0899V23.7499H29.25V15.0899Z" fill="#111010"/>
<path fill-rule="evenodd" clip-rule="evenodd" d="M43.9396 13.2509C44.3484 13.9122 44.1516 14.7876 43.4929 15.2004C43.0543 15.4758 42.5263 15.472 42.1001 15.253L42.0998 15.2533L42.0929 15.2503L42.0859 15.2472C42.0469 15.2308 42.0062 15.2183 41.9351 15.2075C41.8578 15.1957 41.7704 15.204 41.6731 15.2325L41.6682 15.2339C41.6208 15.2509 41.5739 15.2738 41.529 15.3028C41.2479 15.4806 41.1598 15.8533 41.3307 16.1352L41.9832 17.1911C42.392 17.8523 42.1952 18.7277 41.5366 19.1405C40.8817 19.5533 40.0149 19.3545 39.606 18.6894L38.9663 17.6536C38.7884 17.3669 38.4137 17.279 38.1335 17.4586C37.9537 17.5721 37.8517 17.7681 37.8497 17.9686L37.8496 17.9746C37.8496 18.4486 37.6187 18.9111 37.191 19.1787C36.5361 19.5915 35.6693 19.3928 35.2605 18.7277L32.853 14.8364C32.4442 14.1752 32.641 13.2998 33.2997 12.887C33.9545 12.4742 34.8214 12.673 35.2302 13.3381L35.8737 14.3778C36.0498 14.6616 36.4189 14.7506 36.698 14.578L36.7065 14.5727C36.8844 14.4619 36.9828 14.2707 36.9904 14.0758C36.9828 13.5942 37.2175 13.124 37.649 12.8526C38.3039 12.4398 39.1707 12.6386 39.5795 13.3037L40.2268 14.351C40.4047 14.6377 40.7795 14.7256 41.0596 14.5459C41.1256 14.5041 41.1869 14.4319 41.2435 14.3294C41.2435 14.3294 41.2105 14.392 41.2495 14.3168C41.2885 14.2416 41.3137 14.1821 41.3249 14.1383C41.3357 14.0959 41.3437 14.0549 41.3487 14.0154C41.4 13.4739 41.5829 13.0711 42.0091 12.7999C42.6639 12.3871 43.5308 12.5858 43.9396 13.2509Z" fill="#67EADD"/>
</svg>
