<svg width="100" height="100" viewBox="0 0 100 100" fill="none" xmlns="http://www.w3.org/2000/svg">
<rect x="29" y="10.9999" width="51.75" height="66.75" rx="2.84" stroke="#FFFFFF" stroke-width="3"/>
<path d="M24.875 21.2499H21.84C19.7192 21.2499 18 22.9691 18 25.0899V86.1599C18 88.2807 19.7192 89.9999 21.84 89.9999H67.91C70.0308 89.9999 71.75 88.2807 71.75 86.1599V83.1249" stroke="#FFFFFF" stroke-width="2" stroke-linecap="round"/>
<line x1="37.75" y1="53.9999" x2="70.75" y2="53.9999" stroke="#FFFFFF" stroke-width="3" stroke-linecap="round"/>
<line x1="37.75" y1="46.9999" x2="70.75" y2="46.9999" stroke="#FFFFFF" stroke-width="3" stroke-linecap="round"/>
<line x1="37.75" y1="32.9999" x2="70.75" y2="32.9999" stroke="#FFFFFF" stroke-width="3" stroke-linecap="round"/>
<line x1="37.75" y1="67.9999" x2="70.75" y2="67.9999" stroke="#FFFFFF" stroke-width="3" stroke-linecap="round"/>
<line x1="37.75" y1="60.9999" x2="55.75" y2="60.9999" stroke="#FFFFFF" stroke-width="3" stroke-linecap="round"/>
<line x1="37.75" y1="39.9999" x2="63.25" y2="39.9999" stroke="#FFFFFF" stroke-width="3" stroke-linecap="round"/>
<path d="M29.25 15.0899C29.25 12.9691 30.9692 11.2499 33.09 11.2499H77.91C80.0308 11.2499 81.75 12.9691 81.75 15.0899V23.7499H29.25V15.0899Z" fill="#FFFFFF"/>
</svg>
