<svg width="100" height="100" viewBox="0 0 100 100" fill="none" xmlns="http://www.w3.org/2000/svg">
<path d="M30.1714 73.9188V40.8545C30.1714 39.694 30.6615 38.5875 31.5209 37.8077L36.4191 33.3631C39.2606 30.7847 41.6295 27.7293 43.4185 24.3349L48.5948 14.5141C50.0912 11.6749 53.5374 10.4889 56.4641 11.8058C59.0669 12.9769 60.504 15.8016 59.9181 18.5949L58.9401 23.258C58.3678 25.987 57.5475 28.658 56.4896 31.2379L55.2629 34.2292C55.0038 34.8609 55.4684 35.5535 56.1511 35.5535H76.7249C78.0896 35.5535 79.3909 36.1297 80.3082 37.1401C82.4022 39.4466 82.4022 42.9663 80.3082 45.2728L78.8678 46.8594L79.8154 47.9032C82.1889 50.5176 82.1889 54.5071 79.8154 57.1215L78.8678 58.1653L79.8154 59.2091C82.1889 61.8235 82.1889 65.813 79.8154 68.4275L78.8678 69.4712L79.7573 71.0367C81.143 73.4754 80.8052 76.5283 78.9198 78.605C77.664 79.9883 75.8824 80.7772 74.014 80.7772H59.3056C51.6155 80.7772 43.9438 80.0251 36.4002 78.5316L33.4866 77.9548C31.5598 77.5733 30.1714 75.883 30.1714 73.9188Z" stroke="#111010" stroke-width="2" stroke-linecap="round"/>
<rect x="9.6001" y="39.6345" width="17.8286" height="37.0286" rx="2.74286" fill="#67EADD"/>
</svg>
